<svg width="24" height="25" viewBox="0 0 24 25" fill="none" xmlns="http://www.w3.org/2000/svg">
<path d="M12 22.4893C17.5228 22.4893 22 18.0121 22 12.4893C22 6.96641 17.5228 2.48926 12 2.48926C6.47715 2.48926 2 6.96641 2 12.4893C2 18.0121 6.47715 22.4893 12 22.4893Z" stroke="#0F172A" stroke-width="2" stroke-linecap="round" stroke-linejoin="round"/>
<path d="M10.9109 14.6508V14.4729C10.9139 13.8624 10.9599 13.3757 11.049 13.0128C11.1411 12.65 11.2747 12.357 11.4499 12.1337C11.6251 11.9104 11.8359 11.7081 12.0824 11.5266C12.2665 11.3871 12.4313 11.2423 12.5768 11.0923C12.7223 10.9423 12.8382 10.7766 12.9243 10.5951C13.0104 10.4102 13.0535 10.2044 13.0535 9.97764C13.0535 9.73692 13.0045 9.52585 12.9065 9.34443C12.8085 9.16302 12.6763 9.02347 12.51 8.92579C12.3467 8.8281 12.1656 8.77926 11.9666 8.77926C11.7736 8.77926 11.5909 8.82984 11.4187 8.93102C11.2465 9.0287 11.1054 9.17523 10.9955 9.3706C10.8857 9.56248 10.8263 9.80146 10.8174 10.0875H9C9.01485 9.38979 9.15739 8.81415 9.42762 8.36061C9.69785 7.90358 10.0557 7.56343 10.5011 7.34015C10.9465 7.11338 11.438 7 11.9755 7C12.5664 7 13.0891 7.11513 13.5434 7.34539C13.9978 7.57215 14.3541 7.90184 14.6125 8.33444C14.8708 8.76705 15 9.28861 15 9.89914C15 10.3073 14.9421 10.6702 14.8263 10.9876C14.7134 11.3016 14.5546 11.5807 14.3497 11.8249C14.1448 12.0657 13.9027 12.2837 13.6236 12.4791C13.389 12.643 13.196 12.814 13.0445 12.9919C12.8961 13.1698 12.7847 13.3757 12.7105 13.6094C12.6392 13.8432 12.6021 14.131 12.5991 14.4729V14.6508H10.9109ZM11.7929 18C11.4959 18 11.242 17.8779 11.0312 17.6337C10.8233 17.386 10.7209 17.0894 10.7238 16.7441C10.7209 16.4022 10.8233 16.1091 11.0312 15.8649C11.242 15.6207 11.4959 15.4986 11.7929 15.4986C12.075 15.4986 12.3229 15.6207 12.5367 15.8649C12.7506 16.1091 12.8589 16.4022 12.8619 16.7441C12.8589 16.9743 12.807 17.1854 12.706 17.3773C12.608 17.5657 12.4788 17.7174 12.3185 17.8325C12.1581 17.9442 11.9829 18 11.7929 18Z" fill="black"/>
</svg>
