<svg width="24" height="25" viewBox="0 0 24 25" fill="none" xmlns="http://www.w3.org/2000/svg">
<path d="M2 3.48926H8C9.06087 3.48926 10.0783 3.91069 10.8284 4.66083C11.5786 5.41098 12 6.42839 12 7.48926V21.4893C12 20.6936 11.6839 19.9305 11.1213 19.3679C10.5587 18.8053 9.79565 18.4893 9 18.4893H2V3.48926Z" stroke="#0F172A" stroke-width="2" stroke-linecap="round" stroke-linejoin="round"/>
<path d="M22 3.48926H16C14.9391 3.48926 13.9217 3.91069 13.1716 4.66083C12.4214 5.41098 12 6.42839 12 7.48926V21.4893C12 20.6936 12.3161 19.9305 12.8787 19.3679C13.4413 18.8053 14.2044 18.4893 15 18.4893H22V3.48926Z" stroke="#0F172A" stroke-width="2" stroke-linecap="round" stroke-linejoin="round"/>
</svg>
