<svg width="16" height="16" viewBox="0 0 16 16" fill="none" xmlns="http://www.w3.org/2000/svg">
<g clip-path="url(#clip0_479_1353)">
<path d="M11.9603 11.9601C10.8207 12.8288 9.43306 13.31 8.00033 13.3334C3.33366 13.3334 0.666992 8.0001 0.666992 8.0001C1.49625 6.4547 2.64642 5.1045 4.04033 4.0401M6.60033 2.82676C7.05921 2.71935 7.52904 2.66566 8.00033 2.66676C12.667 2.66676 15.3337 8.0001 15.3337 8.0001C14.929 8.75717 14.4464 9.46992 13.8937 10.1268M9.41366 9.41343C9.23056 9.60993 9.00976 9.76754 8.76443 9.87685C8.5191 9.98616 8.25426 10.0449 7.98572 10.0497C7.71718 10.0544 7.45043 10.005 7.2014 9.90443C6.95236 9.80384 6.72614 9.65412 6.53622 9.4642C6.34631 9.27428 6.19659 9.04806 6.096 8.79902C5.99541 8.54999 5.94601 8.28325 5.95075 8.0147C5.95549 7.74616 6.01426 7.48133 6.12358 7.236C6.23289 6.99067 6.39049 6.76986 6.58699 6.58677" stroke="#475569" stroke-width="2" stroke-linecap="round" stroke-linejoin="round"/>
<path d="M0.666992 0.666748L15.3337 15.3334" stroke="#475569" stroke-width="2" stroke-linecap="round" stroke-linejoin="round"/>
</g>
<defs>
<clipPath id="clip0_479_1353">
<rect width="16" height="16" fill="white"/>
</clipPath>
</defs>
</svg>
