<svg width="24" height="25" viewBox="0 0 24 25" fill="none" xmlns="http://www.w3.org/2000/svg">
<path d="M10 13.4892C10.4295 14.0634 10.9774 14.5384 11.6066 14.8822C12.2357 15.2259 12.9315 15.4303 13.6467 15.4816C14.3618 15.5328 15.0796 15.4296 15.7513 15.179C16.4231 14.9284 17.0331 14.5363 17.54 14.0292L20.54 11.0292C21.4508 10.0862 21.9548 8.8232 21.9434 7.51222C21.932 6.20123 21.4061 4.94717 20.4791 4.02013C19.5521 3.09309 18.298 2.56725 16.987 2.55585C15.676 2.54446 14.413 3.04843 13.47 3.95922L11.75 5.66922" stroke="#0F172A" stroke-width="2" stroke-linecap="round" stroke-linejoin="round"/>
<path d="M14 11.4892C13.5705 10.9151 13.0226 10.4401 12.3934 10.0963C11.7642 9.75254 11.0684 9.54812 10.3533 9.49691C9.63816 9.44569 8.92037 9.54887 8.24861 9.79946C7.57685 10.05 6.96684 10.4422 6.45996 10.9492L3.45996 13.9492C2.54917 14.8922 2.04519 16.1553 2.05659 17.4662C2.06798 18.7772 2.59382 20.0313 3.52086 20.9583C4.4479 21.8854 5.70197 22.4112 7.01295 22.4226C8.32393 22.434 9.58694 21.93 10.53 21.0192L12.24 19.3092" stroke="#0F172A" stroke-width="2" stroke-linecap="round" stroke-linejoin="round"/>
</svg>
