<svg width="21" height="18" viewBox="0 0 21 18" fill="none" xmlns="http://www.w3.org/2000/svg">
<path d="M13.9999 3.33325L12.6666 4.66659M12.6666 4.66659L14.6666 6.66659L12.3333 8.99992L10.3333 6.99992M12.6666 4.66659L10.3333 6.99992M7.59327 9.73992C7.9375 10.0796 8.21114 10.4839 8.39844 10.9298C8.58574 11.3756 8.683 11.8541 8.68462 12.3377C8.68624 12.8213 8.59219 13.3004 8.40788 13.7475C8.22357 14.1945 7.95265 14.6007 7.6107 14.9427C7.26876 15.2846 6.86255 15.5556 6.41547 15.7399C5.96839 15.9242 5.48927 16.0182 5.00569 16.0166C4.52212 16.015 4.04363 15.9177 3.5978 15.7304C3.15196 15.5431 2.74758 15.2695 2.40794 14.9253C1.74003 14.2337 1.37045 13.3075 1.3788 12.3461C1.38715 11.3847 1.77277 10.4651 2.4526 9.78525C3.13243 9.10542 4.05208 8.7198 5.01347 8.71145C5.97486 8.70309 6.90106 9.07267 7.59261 9.74059L7.59327 9.73992ZM7.59327 9.73992L10.3333 6.99992" stroke="#64748B" stroke-width="2" stroke-linecap="round" stroke-linejoin="round"/>
<path d="M17.1998 16.8H16.0227V11H17.1998V13.5503L17.9845 13.465L18.9398 11H20.2789L19.0165 13.9085L20.313 16.8H18.9568L17.9845 14.4885L17.1998 14.5738V16.8Z" fill="#64748B"/>
<path d="M13.1324 15.1112H12.1771V16.8H11V11H13.1324C14.5084 11 15.1965 11.671 15.1965 13.0129C15.1965 13.6896 15.0202 14.2099 14.6676 14.5738C14.3208 14.9321 13.809 15.1112 13.1324 15.1112ZM12.1771 14.1047H13.1238C13.7095 14.1047 14.0024 13.7408 14.0024 13.0129C14.0024 12.6547 13.9313 12.3988 13.7891 12.2453C13.647 12.0861 13.4252 12.0065 13.1238 12.0065H12.1771V14.1047Z" fill="#64748B"/>
</svg>
