<svg width="24" height="25" viewBox="0 0 24 25" fill="none" xmlns="http://www.w3.org/2000/svg">
<g clip-path="url(#clip0_145_755)">
<path d="M12 15.4893C13.6569 15.4893 15 14.1461 15 12.4893C15 10.8324 13.6569 9.48926 12 9.48926C10.3431 9.48926 9 10.8324 9 12.4893C9 14.1461 10.3431 15.4893 12 15.4893Z" stroke="#0F172A" stroke-width="2" stroke-linecap="round" stroke-linejoin="round"/>
<path d="M19.4 15.4893C19.2669 15.7909 19.2272 16.1255 19.286 16.4498C19.3448 16.7742 19.4995 17.0736 19.73 17.3093L19.79 17.3693C19.976 17.555 20.1235 17.7756 20.2241 18.0184C20.3248 18.2612 20.3766 18.5214 20.3766 18.7843C20.3766 19.0471 20.3248 19.3073 20.2241 19.5501C20.1235 19.7929 19.976 20.0135 19.79 20.1993C19.6043 20.3852 19.3837 20.5327 19.1409 20.6334C18.8981 20.734 18.6378 20.7858 18.375 20.7858C18.1122 20.7858 17.8519 20.734 17.6091 20.6334C17.3663 20.5327 17.1457 20.3852 16.96 20.1993L16.9 20.1393C16.6643 19.9087 16.365 19.7541 16.0406 19.6953C15.7162 19.6364 15.3816 19.6761 15.08 19.8093C14.7842 19.936 14.532 20.1465 14.3543 20.4148C14.1766 20.6831 14.0813 20.9975 14.08 21.3193V21.4893C14.08 22.0197 13.8693 22.5284 13.4942 22.9035C13.1191 23.2785 12.6104 23.4893 12.08 23.4893C11.5496 23.4893 11.0409 23.2785 10.6658 22.9035C10.2907 22.5284 10.08 22.0197 10.08 21.4893V21.3993C10.0723 21.0683 9.96512 20.7473 9.77251 20.478C9.5799 20.2087 9.31074 20.0035 9 19.8893C8.69838 19.7561 8.36381 19.7164 8.03941 19.7753C7.71502 19.8341 7.41568 19.9887 7.18 20.2193L7.12 20.2793C6.93425 20.4652 6.71368 20.6127 6.47088 20.7134C6.22808 20.814 5.96783 20.8658 5.705 20.8658C5.44217 20.8658 5.18192 20.814 4.93912 20.7134C4.69632 20.6127 4.47575 20.4652 4.29 20.2793C4.10405 20.0935 3.95653 19.8729 3.85588 19.6301C3.75523 19.3873 3.70343 19.1271 3.70343 18.8643C3.70343 18.6014 3.75523 18.3412 3.85588 18.0984C3.95653 17.8556 4.10405 17.635 4.29 17.4493L4.35 17.3893C4.58054 17.1536 4.73519 16.8542 4.794 16.5298C4.85282 16.2055 4.81312 15.8709 4.68 15.5693C4.55324 15.2735 4.34276 15.0212 4.07447 14.8436C3.80618 14.6659 3.49179 14.5705 3.17 14.5693H3C2.46957 14.5693 1.96086 14.3585 1.58579 13.9835C1.21071 13.6084 1 13.0997 1 12.5693C1 12.0388 1.21071 11.5301 1.58579 11.155C1.96086 10.78 2.46957 10.5693 3 10.5693H3.09C3.42099 10.5615 3.742 10.4544 4.0113 10.2618C4.28059 10.0692 4.48572 9.79999 4.6 9.48926C4.73312 9.18764 4.77282 8.85306 4.714 8.52867C4.65519 8.20427 4.50054 7.90494 4.27 7.66926L4.21 7.60926C4.02405 7.42351 3.87653 7.20293 3.77588 6.96014C3.67523 6.71734 3.62343 6.45709 3.62343 6.19426C3.62343 5.93143 3.67523 5.67117 3.77588 5.42838C3.87653 5.18558 4.02405 4.965 4.21 4.77926C4.39575 4.5933 4.61632 4.44579 4.85912 4.34514C5.10192 4.24449 5.36217 4.19268 5.625 4.19268C5.88783 4.19268 6.14808 4.24449 6.39088 4.34514C6.63368 4.44579 6.85425 4.5933 7.04 4.77926L7.1 4.83926C7.33568 5.06979 7.63502 5.22444 7.95941 5.28326C8.28381 5.34208 8.61838 5.30237 8.92 5.16926H9C9.29577 5.04249 9.54802 4.83201 9.72569 4.56372C9.90337 4.29543 9.99872 3.98104 10 3.65926V3.48926C10 2.95882 10.2107 2.45012 10.5858 2.07504C10.9609 1.69997 11.4696 1.48926 12 1.48926C12.5304 1.48926 13.0391 1.69997 13.4142 2.07504C13.7893 2.45012 14 2.95882 14 3.48926V3.57926C14.0013 3.90104 14.0966 4.21543 14.2743 4.48372C14.452 4.75201 14.7042 4.96249 15 5.08926C15.3016 5.22237 15.6362 5.26208 15.9606 5.20326C16.285 5.14444 16.5843 4.98979 16.82 4.75926L16.88 4.69926C17.0657 4.5133 17.2863 4.36579 17.5291 4.26514C17.7719 4.16449 18.0322 4.11268 18.295 4.11268C18.5578 4.11268 18.8181 4.16449 19.0609 4.26514C19.3037 4.36579 19.5243 4.5133 19.71 4.69926C19.896 4.885 20.0435 5.10558 20.1441 5.34838C20.2448 5.59117 20.2966 5.85143 20.2966 6.11426C20.2966 6.37709 20.2448 6.63734 20.1441 6.88014C20.0435 7.12293 19.896 7.34351 19.71 7.52926L19.65 7.58926C19.4195 7.82494 19.2648 8.12427 19.206 8.44867C19.1472 8.77306 19.1869 9.10764 19.32 9.40926V9.48926C19.4468 9.78503 19.6572 10.0373 19.9255 10.215C20.1938 10.3926 20.5082 10.488 20.83 10.4893H21C21.5304 10.4893 22.0391 10.7 22.4142 11.075C22.7893 11.4501 23 11.9588 23 12.4893C23 13.0197 22.7893 13.5284 22.4142 13.9035C22.0391 14.2785 21.5304 14.4893 21 14.4893H20.91C20.5882 14.4905 20.2738 14.5859 20.0055 14.7636C19.7372 14.9412 19.5268 15.1935 19.4 15.4893Z" stroke="#0F172A" stroke-width="2" stroke-linecap="round" stroke-linejoin="round"/>
</g>
<defs>
<clipPath id="clip0_145_755">
<rect width="24" height="24" fill="white" transform="translate(0 0.489258)"/>
</clipPath>
</defs>
</svg>
