<svg width="24" height="25" viewBox="0 0 24 25" fill="none" xmlns="http://www.w3.org/2000/svg">
<path d="M14.7001 6.78924C14.5169 6.97617 14.4142 7.22749 14.4142 7.48924C14.4142 7.75099 14.5169 8.00231 14.7001 8.18924L16.3001 9.78924C16.487 9.97246 16.7383 10.0751 17.0001 10.0751C17.2619 10.0751 17.5132 9.97246 17.7001 9.78924L21.4701 6.01924C21.9729 7.13043 22.1252 8.36847 21.9066 9.56838C21.6879 10.7683 21.1088 11.8731 20.2464 12.7355C19.3839 13.598 18.2792 14.1771 17.0792 14.3957C15.8793 14.6143 14.6413 14.4621 13.5301 13.9592L6.6201 20.8692C6.22227 21.2671 5.68271 21.4906 5.1201 21.4906C4.55749 21.4906 4.01792 21.2671 3.6201 20.8692C3.22227 20.4714 2.99878 19.9318 2.99878 19.3692C2.99878 18.8066 3.22227 18.2671 3.6201 17.8692L10.5301 10.9592C10.0273 9.84805 9.87502 8.61 10.0936 7.41009C10.3123 6.21018 10.8914 5.10539 11.7538 4.24296C12.6163 3.38053 13.721 2.80141 14.921 2.58278C16.1209 2.36415 17.3589 2.5164 18.4701 3.01924L14.7101 6.77924L14.7001 6.78924Z" stroke="#0F172A" stroke-width="2" stroke-linecap="round" stroke-linejoin="round"/>
</svg>
