<svg width="501" height="500" viewBox="0 0 501 500" fill="none" xmlns="http://www.w3.org/2000/svg">
<path d="M238.9 445.05H45.7998C44.2855 445.05 42.8331 444.448 41.7623 443.378C40.6914 442.307 40.0898 440.854 40.0898 439.34V60.66C40.103 59.1543 40.7104 57.7147 41.7798 56.6547C42.8492 55.5947 44.2941 54.9999 45.7998 55H238.9C239.65 55 240.392 55.1477 241.085 55.4346C241.778 55.7216 242.407 56.1422 242.937 56.6724C243.468 57.2026 243.888 57.8321 244.175 58.5249C244.462 59.2176 244.61 59.9602 244.61 60.71V439.34C244.61 440.09 244.462 440.832 244.175 441.525C243.888 442.218 243.468 442.847 242.937 443.378C242.407 443.908 241.778 444.328 241.085 444.615C240.392 444.902 239.65 445.05 238.9 445.05ZM45.7998 55.2C44.3526 55.2026 42.9653 55.7787 41.942 56.8021C40.9186 57.8255 40.3425 59.2127 40.3398 60.66V439.34C40.3425 440.787 40.9186 442.174 41.942 443.198C42.9653 444.221 44.3526 444.797 45.7998 444.8H238.9C240.347 444.797 241.734 444.221 242.758 443.198C243.781 442.174 244.357 440.787 244.36 439.34V60.66C244.357 59.2127 243.781 57.8255 242.758 56.8021C241.734 55.7787 240.347 55.2026 238.9 55.2H45.7998Z" fill="#EBEBEB"/>
<path d="M455.2 445.05H262.1C260.585 445.05 259.133 444.448 258.062 443.378C256.991 442.307 256.39 440.854 256.39 439.34V60.66C256.403 59.1543 257.01 57.7147 258.08 56.6547C259.149 55.5947 260.594 54.9999 262.1 55H455.2C456.714 55 458.166 55.6016 459.237 56.6724C460.308 57.7433 460.91 59.1956 460.91 60.71V439.34C460.91 440.09 460.762 440.832 460.475 441.525C460.188 442.218 459.767 442.847 459.237 443.378C458.707 443.908 458.078 444.328 457.385 444.615C456.692 444.902 455.95 445.05 455.2 445.05ZM262.1 55.2C260.652 55.2026 259.265 55.7787 258.242 56.8021C257.218 57.8255 256.642 59.2127 256.64 60.66V439.34C256.642 440.787 257.218 442.174 258.242 443.198C259.265 444.221 260.652 444.797 262.1 444.8H455.2C456.647 444.797 458.034 444.221 459.058 443.198C460.081 442.174 460.657 440.787 460.66 439.34V60.66C460.657 59.2127 460.081 57.8255 459.058 56.8021C458.034 55.7787 456.647 55.2026 455.2 55.2H262.1Z" fill="#EBEBEB"/>
<path d="M113.55 168.25L115.17 171.52L118.79 172.05L116.17 174.6L116.79 178.2L113.55 176.5L110.32 178.2L110.94 174.6L108.32 172.05L111.94 171.52L113.55 168.25Z" fill="#EBEBEB"/>
<path d="M437.2 322.48L438.82 325.76L442.44 326.29L439.82 328.83L440.44 332.44L437.2 330.74L433.97 332.44L434.59 328.83L431.97 326.29L435.59 325.76L437.2 322.48Z" fill="#F5F5F5"/>
<path d="M373.1 417.57L374.72 420.84L378.33 421.37L375.71 423.92L376.33 427.52L373.1 425.82L369.87 427.52L370.48 423.92L367.87 421.37L371.48 420.84L373.1 417.57Z" fill="#F5F5F5"/>
<path d="M226.44 110.15L227.04 111.37L228.39 111.57C228.465 111.58 228.536 111.611 228.595 111.66C228.653 111.709 228.696 111.773 228.719 111.845C228.742 111.918 228.744 111.995 228.725 112.069C228.706 112.142 228.666 112.209 228.61 112.26L227.61 113.21L227.84 114.55C227.852 114.625 227.843 114.701 227.814 114.771C227.785 114.841 227.738 114.901 227.677 114.946C227.615 114.99 227.543 115.017 227.468 115.023C227.393 115.029 227.317 115.014 227.25 114.98L226.05 114.34L224.85 114.98C224.783 115.014 224.707 115.029 224.632 115.023C224.557 115.017 224.484 114.99 224.423 114.946C224.362 114.901 224.315 114.841 224.286 114.771C224.257 114.701 224.248 114.625 224.26 114.55L224.48 113.21L223.48 112.26C223.424 112.208 223.384 112.141 223.365 112.066C223.346 111.992 223.349 111.914 223.374 111.841C223.398 111.769 223.442 111.705 223.502 111.656C223.562 111.608 223.634 111.578 223.71 111.57L225.05 111.37L225.65 110.15C225.674 110.064 225.726 109.988 225.797 109.934C225.868 109.879 225.955 109.85 226.045 109.85C226.135 109.85 226.222 109.879 226.293 109.934C226.364 109.988 226.416 110.064 226.44 110.15Z" fill="#EBEBEB"/>
<path d="M61.28 402L61.88 403.21L63.22 403.41C63.2961 403.42 63.3677 403.452 63.4266 403.501C63.4856 403.55 63.5296 403.615 63.5536 403.688C63.5775 403.761 63.5805 403.839 63.5622 403.914C63.5439 403.988 63.505 404.056 63.45 404.11L62.45 405.05L62.68 406.39C62.6918 406.464 62.6828 406.541 62.6539 406.611C62.6251 406.68 62.5775 406.741 62.5165 406.785C62.4555 406.83 62.3834 406.857 62.3081 406.863C62.2328 406.869 62.1574 406.854 62.09 406.82L60.89 406.19L59.69 406.82C59.6226 406.854 59.5471 406.869 59.4719 406.863C59.3966 406.857 59.3245 406.83 59.2635 406.785C59.2024 406.741 59.1549 406.68 59.126 406.611C59.0972 406.541 59.0882 406.464 59.1 406.39L59.33 405.05L58.33 404.11C58.2751 404.057 58.2361 403.99 58.2173 403.916C58.1985 403.842 58.2006 403.764 58.2235 403.692C58.2463 403.619 58.289 403.554 58.3466 403.504C58.4043 403.455 58.4747 403.422 58.55 403.41L59.89 403.21L60.5 402C60.5267 401.917 60.5788 401.846 60.6489 401.795C60.719 401.744 60.8034 401.716 60.89 401.716C60.9766 401.716 61.061 401.744 61.1311 401.795C61.2011 401.846 61.2533 401.917 61.28 402Z" fill="#F5F5F5"/>
<path d="M88.2501 97.2999L88.8501 98.5199L90.2001 98.7099C90.2753 98.7219 90.3457 98.7547 90.4034 98.8045C90.4611 98.8543 90.5038 98.9192 90.5266 98.9919C90.5495 99.0646 90.5516 99.1422 90.5328 99.216C90.514 99.2899 90.4749 99.357 90.4201 99.4099L89.4201 100.41L89.6501 101.74C89.6661 101.815 89.6599 101.894 89.6322 101.966C89.6046 102.038 89.5567 102.101 89.4943 102.146C89.432 102.191 89.3578 102.218 89.2807 102.222C89.2037 102.226 89.1271 102.208 89.0601 102.17L87.8601 101.54L86.6601 102.17C86.5931 102.208 86.5165 102.226 86.4394 102.222C86.3624 102.218 86.2882 102.191 86.2258 102.146C86.1635 102.101 86.1156 102.038 86.0879 101.966C86.0603 101.894 86.0541 101.815 86.0701 101.74L86.2901 100.41L85.2901 99.4099C85.235 99.3564 85.1962 99.2884 85.1778 99.2138C85.1595 99.1393 85.1625 99.061 85.1865 98.9881C85.2105 98.9151 85.2545 98.8504 85.3134 98.8012C85.3724 98.752 85.444 98.7204 85.5201 98.7099L86.8601 98.5199L87.5001 97.2999C87.5322 97.2272 87.5847 97.1655 87.6513 97.1221C87.7179 97.0787 87.7956 97.0557 87.8751 97.0557C87.9545 97.0557 88.0323 97.0787 88.0988 97.1221C88.1654 97.1655 88.218 97.2272 88.2501 97.2999Z" fill="#EBEBEB"/>
<path d="M86.6297 338.32C86.6317 338.583 86.5553 338.842 86.4104 339.062C86.2655 339.282 86.0585 339.454 85.8156 339.556C85.5728 339.658 85.3051 339.686 85.0464 339.636C84.7878 339.585 84.5498 339.46 84.3628 339.274C84.1758 339.088 84.0482 338.851 83.996 338.593C83.9439 338.335 83.9696 338.067 84.07 337.823C84.1704 337.58 84.3408 337.371 84.5598 337.225C84.7787 337.078 85.0362 337 85.2997 337C85.6507 337 85.9875 337.139 86.2366 337.386C86.4858 337.633 86.627 337.969 86.6297 338.32Z" fill="#EBEBEB"/>
<path d="M276.17 171.89C276.172 172.153 276.095 172.411 275.95 172.631C275.806 172.851 275.598 173.024 275.356 173.126C275.113 173.228 274.845 173.256 274.586 173.206C274.328 173.155 274.09 173.029 273.903 172.844C273.716 172.658 273.588 172.421 273.536 172.163C273.484 171.905 273.51 171.637 273.61 171.393C273.71 171.15 273.881 170.941 274.1 170.795C274.319 170.648 274.576 170.57 274.84 170.57C275.014 170.569 275.187 170.602 275.348 170.667C275.509 170.733 275.656 170.83 275.78 170.953C275.903 171.076 276.001 171.222 276.068 171.382C276.135 171.543 276.17 171.716 276.17 171.89Z" fill="#EBEBEB"/>
<path d="M207.21 98.3998C207.21 98.6629 207.132 98.92 206.986 99.1387C206.84 99.3575 206.632 99.5279 206.389 99.6286C206.146 99.7293 205.878 99.7556 205.62 99.7043C205.362 99.653 205.125 99.5263 204.939 99.3403C204.753 99.1543 204.627 98.9173 204.575 98.6593C204.524 98.4013 204.55 98.1339 204.651 97.8909C204.752 97.6478 204.922 97.4401 205.141 97.294C205.36 97.1478 205.617 97.0698 205.88 97.0698C206.232 97.0724 206.569 97.2134 206.817 97.4623C207.066 97.7111 207.207 98.0479 207.21 98.3998Z" fill="#F5F5F5"/>
<path d="M209.316 422.544C213.267 421.611 215.713 417.653 214.781 413.702C213.848 409.751 209.89 407.304 205.939 408.237C201.988 409.169 199.542 413.128 200.474 417.079C201.406 421.029 205.365 423.476 209.316 422.544Z" fill="#F0F0F0"/>
<path d="M205.1 411.09C203.594 411.087 202.127 411.563 200.91 412.45C200.288 413.876 200.136 415.462 200.474 416.98C200.812 418.498 201.624 419.869 202.792 420.896C203.96 421.923 205.424 422.552 206.973 422.693C208.522 422.834 210.076 422.479 211.41 421.68C212 420.587 212.297 419.36 212.271 418.119C212.245 416.877 211.897 415.664 211.261 414.597C210.624 413.531 209.722 412.648 208.642 412.035C207.562 411.421 206.342 411.099 205.1 411.1V411.09Z" fill="#E6E6E6"/>
<path d="M148.18 287.64H87.3301V260.17L148.18 187.83H177.3V261.73H192.39V287.64H177.3V310.12H148.18V287.64ZM148.18 261.73V223.89L116.02 261.73H148.18Z" fill="#1AA4DE"/>
<path d="M202.8 249.51C202.8 226.65 206.913 210.65 215.14 201.51C223.367 192.37 235.903 187.803 252.75 187.81C260.837 187.81 267.48 188.81 272.68 190.81C277.404 192.512 281.729 195.163 285.39 198.6C288.476 201.546 291.09 204.949 293.14 208.69C295.169 212.596 296.698 216.742 297.69 221.03C299.951 230.191 301.079 239.594 301.05 249.03C301.05 270.843 297.36 286.807 289.98 296.92C282.6 307.033 269.89 312.093 251.85 312.1C241.73 312.1 233.553 310.487 227.32 307.26C221.037 303.981 215.744 299.082 211.99 293.07C209.09 288.643 206.833 282.587 205.22 274.9C203.545 266.542 202.734 258.034 202.8 249.51ZM235.94 249.59C235.94 264.923 237.29 275.38 239.99 280.96C242.69 286.54 246.613 289.343 251.76 289.37C253.393 289.388 255.014 289.082 256.528 288.469C258.042 287.857 259.419 286.949 260.58 285.8C263.073 283.42 264.907 279.66 266.08 274.52C267.253 269.38 267.84 261.38 267.84 250.52C267.84 234.56 266.487 223.83 263.78 218.33C261.073 212.83 257.013 210.083 251.6 210.09C246.08 210.09 242.08 212.893 239.6 218.5C237.12 224.107 235.9 234.47 235.94 249.59Z" fill="#1AA4DE"/>
<path d="M372.24 287.64H311.39V260.17L372.24 187.83H401.36V261.73H416.5V287.64H401.36V310.12H372.24V287.64ZM372.24 261.73V223.89L340.09 261.73H372.24Z" fill="#1AA4DE"/>
<g opacity="0.3">
<path d="M201.5 145.62C201.5 145.99 201.39 146.352 201.184 146.66C200.978 146.968 200.685 147.207 200.343 147.349C200.001 147.49 199.624 147.526 199.261 147.453C198.898 147.38 198.565 147.201 198.304 146.939C198.043 146.676 197.866 146.342 197.794 145.979C197.723 145.615 197.762 145.239 197.905 144.897C198.048 144.556 198.289 144.265 198.598 144.06C198.907 143.856 199.269 143.748 199.64 143.75C199.885 143.75 200.128 143.798 200.354 143.893C200.58 143.987 200.786 144.125 200.959 144.298C201.131 144.472 201.268 144.678 201.361 144.905C201.454 145.132 201.501 145.375 201.5 145.62Z" fill="#1AA4DE"/>
<path d="M73.4699 217.45C74.1989 217.45 74.7899 216.859 74.7899 216.13C74.7899 215.401 74.1989 214.81 73.4699 214.81C72.7409 214.81 72.1499 215.401 72.1499 216.13C72.1499 216.859 72.7409 217.45 73.4699 217.45Z" fill="#1AA4DE"/>
<path d="M291.55 410.22C292.594 410.22 293.44 409.374 293.44 408.33C293.44 407.287 292.594 406.44 291.55 406.44C290.506 406.44 289.66 407.287 289.66 408.33C289.66 409.374 290.506 410.22 291.55 410.22Z" fill="#1AA4DE"/>
<path d="M337 333.32C337.729 333.32 338.32 332.729 338.32 332C338.32 331.271 337.729 330.68 337 330.68C336.271 330.68 335.68 331.271 335.68 332C335.68 332.729 336.271 333.32 337 333.32Z" fill="#1AA4DE"/>
<path d="M424.67 95.6203C424.67 95.8814 424.592 96.1366 424.447 96.3536C424.302 96.5707 424.096 96.7399 423.855 96.8398C423.614 96.9397 423.348 96.9659 423.092 96.9149C422.836 96.864 422.601 96.7383 422.416 96.5537C422.232 96.3691 422.106 96.1339 422.055 95.8778C422.004 95.6218 422.03 95.3563 422.13 95.1152C422.23 94.874 422.399 94.6678 422.616 94.5228C422.833 94.3777 423.089 94.3003 423.35 94.3003C423.7 94.3003 424.036 94.4394 424.283 94.6869C424.531 94.9345 424.67 95.2702 424.67 95.6203Z" fill="#1AA4DE"/>
<path d="M173.25 69.0002C173.25 69.2612 173.172 69.5165 173.027 69.7335C172.882 69.9506 172.676 70.1198 172.435 70.2197C172.194 70.3196 171.928 70.3457 171.672 70.2948C171.416 70.2439 171.181 70.1182 170.996 69.9336C170.812 69.749 170.686 69.5138 170.635 69.2577C170.584 69.0016 170.61 68.7362 170.71 68.495C170.81 68.2538 170.979 68.0477 171.197 67.9026C171.414 67.7576 171.669 67.6802 171.93 67.6802C172.279 67.6828 172.613 67.8227 172.86 68.0697C173.107 68.3167 173.247 68.6509 173.25 69.0002Z" fill="#1AA4DE"/>
<path d="M278.2 138.26C278.929 138.26 279.52 137.669 279.52 136.94C279.52 136.211 278.929 135.62 278.2 135.62C277.471 135.62 276.88 136.211 276.88 136.94C276.88 137.669 277.471 138.26 278.2 138.26Z" fill="#1AA4DE"/>
</g>
<path d="M141.73 138.27C153.83 138.27 163.64 128.461 163.64 116.36C163.64 104.26 153.83 94.4502 141.73 94.4502C129.629 94.4502 119.82 104.26 119.82 116.36C119.82 128.461 129.629 138.27 141.73 138.27Z" fill="#1AA4DE"/>
<path opacity="0.7" d="M141.73 138.27C153.83 138.27 163.64 128.461 163.64 116.36C163.64 104.26 153.83 94.4502 141.73 94.4502C129.629 94.4502 119.82 104.26 119.82 116.36C119.82 128.461 129.629 138.27 141.73 138.27Z" fill="white"/>
<path opacity="0.2" d="M134.18 99.8302C131.196 99.821 128.242 100.423 125.5 101.6C122.13 105.304 120.129 110.05 119.832 115.049C119.534 120.048 120.957 124.998 123.864 129.075C126.77 133.153 130.985 136.112 135.808 137.462C140.63 138.811 145.769 138.468 150.37 136.49C153.222 133.347 155.1 129.443 155.777 125.253C156.453 121.062 155.898 116.766 154.179 112.885C152.461 109.003 149.652 105.705 146.095 103.389C142.537 101.074 138.384 99.8408 134.14 99.8402L134.18 99.8302Z" fill="#1AA4DE"/>
<path opacity="0.2" d="M132 105.62C132 106.016 131.883 106.402 131.663 106.731C131.443 107.06 131.131 107.316 130.765 107.468C130.4 107.619 129.998 107.659 129.61 107.582C129.222 107.505 128.865 107.314 128.586 107.034C128.306 106.755 128.116 106.398 128.038 106.01C127.961 105.622 128.001 105.22 128.152 104.855C128.304 104.489 128.56 104.177 128.889 103.957C129.218 103.737 129.604 103.62 130 103.62C130.53 103.62 131.039 103.831 131.414 104.206C131.789 104.581 132 105.09 132 105.62Z" fill="#1AA4DE"/>
<path opacity="0.2" d="M155.56 103.62C155.56 104.016 155.443 104.402 155.223 104.731C155.003 105.06 154.691 105.316 154.325 105.468C153.96 105.619 153.558 105.659 153.17 105.582C152.782 105.505 152.426 105.314 152.146 105.034C151.866 104.755 151.676 104.398 151.598 104.01C151.521 103.622 151.561 103.22 151.712 102.855C151.864 102.489 152.12 102.177 152.449 101.957C152.778 101.737 153.164 101.62 153.56 101.62C154.09 101.62 154.599 101.831 154.974 102.206C155.349 102.581 155.56 103.09 155.56 103.62Z" fill="#1AA4DE"/>
<path opacity="0.2" d="M151.56 117.9C151.56 118.549 151.368 119.183 151.007 119.722C150.647 120.262 150.135 120.682 149.535 120.93C148.936 121.179 148.276 121.244 147.64 121.117C147.004 120.991 146.419 120.678 145.961 120.219C145.502 119.761 145.19 119.176 145.063 118.54C144.936 117.904 145.001 117.244 145.25 116.645C145.498 116.046 145.918 115.533 146.458 115.173C146.997 114.812 147.631 114.62 148.28 114.62C149.15 114.62 149.984 114.966 150.599 115.581C151.214 116.196 151.56 117.03 151.56 117.9Z" fill="#1AA4DE"/>
<path opacity="0.2" d="M141.14 127.25C141.14 128.116 140.883 128.963 140.402 129.684C139.92 130.404 139.236 130.965 138.436 131.297C137.636 131.628 136.755 131.715 135.905 131.546C135.056 131.377 134.275 130.96 133.663 130.347C133.05 129.735 132.633 128.954 132.464 128.105C132.295 127.255 132.382 126.374 132.713 125.574C133.045 124.774 133.606 124.09 134.326 123.608C135.047 123.127 135.894 122.87 136.76 122.87C137.922 122.87 139.036 123.332 139.857 124.153C140.678 124.974 141.14 126.088 141.14 127.25Z" fill="#1AA4DE"/>
<path d="M401.4 380.646C403.839 370.31 397.438 359.953 387.101 357.513C376.765 355.074 366.408 361.475 363.968 371.812C361.528 382.148 367.93 392.505 378.267 394.945C388.603 397.384 398.96 390.983 401.4 380.646Z" fill="#1AA4DE"/>
<path opacity="0.3" d="M401.4 380.646C403.839 370.31 397.438 359.953 387.101 357.513C376.765 355.074 366.408 361.475 363.968 371.812C361.528 382.148 367.93 392.505 378.267 394.945C388.603 397.384 398.96 390.983 401.4 380.646Z" fill="white"/>
<path opacity="0.4" d="M394.83 361.34C390.567 360.054 385.989 360.287 381.88 362.001C377.77 363.714 374.382 366.802 372.296 370.736C370.21 374.67 369.554 379.206 370.441 383.569C371.329 387.933 373.703 391.853 377.16 394.66C378.953 395.205 380.816 395.481 382.69 395.48C386.66 395.479 390.532 394.25 393.775 391.96C397.019 389.671 399.474 386.434 400.804 382.693C402.134 378.953 402.274 374.892 401.204 371.069C400.135 367.246 397.908 363.848 394.83 361.34Z" fill="#1AA4DE"/>
<path d="M364.33 382C343.8 391.66 359.11 399.11 388.04 388.71C414.83 379.08 425.04 366.94 401.04 370.71C402.33 375.76 368.78 388.83 364.33 382Z" fill="#1AA4DE"/>
<path opacity="0.2" d="M394.6 187.83C367.71 206 332.9 230 323.29 287.64H321.24C330.59 230.64 364.13 206.07 391.03 187.83H394.6Z" fill="black"/>
<path d="M255.5 368.27C238.5 368.27 221.69 360.6 213.5 348.08C208.45 340.34 202.58 324.13 220.06 302.5L221.61 303.76C209.25 319.06 206.97 334.41 215.18 346.99C225.18 362.29 248.77 369.99 268.91 364.51C289.54 358.9 302.06 340.96 303.27 315.29C307.4 227.48 354.05 200.43 388.11 180.68C409.28 168.41 424.57 159.55 421.21 140.84C420.74 138.25 419.71 136.46 418.04 135.36C413.69 132.49 405.19 134.48 395.35 136.77C376.04 141.27 349.6 147.43 333.85 120.64L335.58 119.64C350.58 145.17 375.15 139.44 394.9 134.84C405.19 132.45 414.07 130.38 419.14 133.71C421.29 135.12 422.61 137.35 423.14 140.51C426.75 160.59 410.14 170.23 389.09 182.43C355.42 201.95 309.32 228.68 305.24 315.43C303.98 342.03 290.92 360.64 269.4 366.49C264.866 367.697 260.192 368.296 255.5 368.27Z" fill="#1AA4DE"/>
<path opacity="0.2" d="M255.5 368.27C238.5 368.27 221.69 360.6 213.5 348.08C208.45 340.34 202.58 324.13 220.06 302.5L221.61 303.76C209.25 319.06 206.97 334.41 215.18 346.99C225.18 362.29 248.77 369.99 268.91 364.51C289.54 358.9 302.06 340.96 303.27 315.29C307.4 227.48 354.05 200.43 388.11 180.68C409.28 168.41 424.57 159.55 421.21 140.84C420.74 138.25 419.71 136.46 418.04 135.36C413.69 132.49 405.19 134.48 395.35 136.77C376.04 141.27 349.6 147.43 333.85 120.64L335.58 119.64C350.58 145.17 375.15 139.44 394.9 134.84C405.19 132.45 414.07 130.38 419.14 133.71C421.29 135.12 422.61 137.35 423.14 140.51C426.75 160.59 410.14 170.23 389.09 182.43C355.42 201.95 309.32 228.68 305.24 315.43C303.98 342.03 290.92 360.64 269.4 366.49C264.866 367.697 260.192 368.296 255.5 368.27Z" fill="white"/>
<path d="M313.26 97C317.868 97.0266 322.445 97.7446 326.84 99.13C326.84 99.13 337.84 117.9 339.14 122.2C338.68 126.44 331.53 133.39 331.53 133.39L313.26 97Z" fill="#1AA4DE"/>
<path opacity="0.3" d="M313.26 97C317.868 97.0266 322.445 97.7446 326.84 99.13C326.84 99.13 337.84 117.9 339.14 122.2C338.68 126.44 331.53 133.39 331.53 133.39L313.26 97Z" fill="white"/>
<path d="M345.84 188.13C341.604 182.95 337.741 177.476 334.28 171.75C333.44 170.303 332.643 168.83 331.89 167.33C331.46 166.48 331.05 165.63 330.65 164.77C330.125 163.933 329.718 163.028 329.44 162.08C328.24 149.41 332.58 140.08 328.44 129.91L311.96 136.35C311.96 136.35 313.36 154.47 316.56 165.35C318.56 172.08 323.04 177.9 327.37 183.29C328.72 184.97 330.02 186.7 331.37 188.39C332.72 190.08 334.08 191.45 335.37 193.04C337.32 195.45 337.96 197.76 336.49 200.6L336.24 201.05C335.82 201.79 337.78 202.63 339.02 201.05C341.02 198.47 340.74 198.63 342.48 196.43C343.54 195.1 344.75 193.65 345.8 192.43C346.306 191.83 346.588 191.072 346.595 190.287C346.602 189.502 346.335 188.739 345.84 188.13Z" fill="#1AA4DE"/>
<path opacity="0.7" d="M345.84 188.13C341.604 182.95 337.741 177.476 334.28 171.75C333.44 170.303 332.643 168.83 331.89 167.33C331.46 166.48 331.05 165.63 330.65 164.77C330.125 163.933 329.718 163.028 329.44 162.08C328.24 149.41 332.58 140.08 328.44 129.91L311.96 136.35C311.96 136.35 313.36 154.47 316.56 165.35C318.56 172.08 323.04 177.9 327.37 183.29C328.72 184.97 330.02 186.7 331.37 188.39C332.72 190.08 334.08 191.45 335.37 193.04C337.32 195.45 337.96 197.76 336.49 200.6L336.24 201.05C335.82 201.79 337.78 202.63 339.02 201.05C341.02 198.47 340.74 198.63 342.48 196.43C343.54 195.1 344.75 193.65 345.8 192.43C346.306 191.83 346.588 191.072 346.595 190.287C346.602 189.502 346.335 188.739 345.84 188.13Z" fill="white"/>
<path opacity="0.3" d="M341.81 182.92C339.195 185.723 336.292 188.244 333.15 190.44C333.58 190.92 334 191.44 334.43 191.9C337.576 189.775 340.433 187.25 342.93 184.39L341.81 182.92Z" fill="#1AA4DE"/>
<path opacity="0.3" d="M345.84 188.13L345.72 187.99C344.95 188.872 344.502 189.99 344.45 191.16C344.385 191.962 344.516 192.768 344.83 193.51L345.78 192.38C346.276 191.786 346.553 191.039 346.564 190.265C346.575 189.491 346.319 188.737 345.84 188.13Z" fill="#1AA4DE"/>
<path d="M309.34 109C307.553 111.675 305.41 114.094 302.97 116.19C301.617 117.356 300.133 118.363 298.55 119.19C297.718 119.616 296.856 119.981 295.97 120.28L295.29 120.5L295.07 120.56L294.6 120.69C294.31 120.759 294.016 120.806 293.72 120.83C292.876 120.895 292.028 120.817 291.21 120.6C290.178 120.307 289.19 119.88 288.27 119.33C287.529 118.897 286.812 118.427 286.12 117.92C284.87 116.99 283.674 115.988 282.54 114.92C280.352 112.847 278.345 110.593 276.54 108.18C276.192 107.71 276.02 107.133 276.052 106.55C276.084 105.966 276.319 105.412 276.716 104.983C277.113 104.554 277.647 104.277 278.227 104.199C278.806 104.122 279.394 104.25 279.89 104.56H279.97C282.33 106.06 284.71 107.64 287.03 109.05C288.21 109.74 289.35 110.44 290.48 110.98C290.996 111.25 291.527 111.491 292.07 111.7C292.408 111.849 292.771 111.938 293.14 111.96C293.2 111.96 293.14 111.89 292.77 111.9C292.653 111.893 292.536 111.893 292.42 111.9L292.2 111.95L292.53 111.78C292.974 111.541 293.405 111.277 293.82 110.99C294.715 110.359 295.551 109.65 296.32 108.87C298.067 107.039 299.703 105.106 301.22 103.08C302.051 102.15 303.199 101.565 304.44 101.438C305.68 101.311 306.923 101.653 307.925 102.395C308.927 103.138 309.615 104.228 309.855 105.452C310.094 106.676 309.868 107.945 309.22 109.01L309.34 109Z" fill="#1AA4DE"/>
<path opacity="0.7" d="M309.34 109C307.553 111.675 305.41 114.094 302.97 116.19C301.617 117.356 300.133 118.363 298.55 119.19C297.718 119.616 296.856 119.981 295.97 120.28L295.29 120.5L295.07 120.56L294.6 120.69C294.31 120.759 294.016 120.806 293.72 120.83C292.876 120.895 292.028 120.817 291.21 120.6C290.178 120.307 289.19 119.88 288.27 119.33C287.529 118.897 286.812 118.427 286.12 117.92C284.87 116.99 283.674 115.988 282.54 114.92C280.352 112.847 278.345 110.593 276.54 108.18C276.192 107.71 276.02 107.133 276.052 106.55C276.084 105.966 276.319 105.412 276.716 104.983C277.113 104.554 277.647 104.277 278.227 104.199C278.806 104.122 279.394 104.25 279.89 104.56H279.97C282.33 106.06 284.71 107.64 287.03 109.05C288.21 109.74 289.35 110.44 290.48 110.98C290.996 111.25 291.527 111.491 292.07 111.7C292.408 111.849 292.771 111.938 293.14 111.96C293.2 111.96 293.14 111.89 292.77 111.9C292.653 111.893 292.536 111.893 292.42 111.9L292.2 111.95L292.53 111.78C292.974 111.541 293.405 111.277 293.82 110.99C294.715 110.359 295.551 109.65 296.32 108.87C298.067 107.039 299.703 105.106 301.22 103.08C302.051 102.15 303.199 101.565 304.44 101.438C305.68 101.311 306.923 101.653 307.925 102.395C308.927 103.138 309.615 104.228 309.855 105.452C310.094 106.676 309.868 107.945 309.22 109.01L309.34 109Z" fill="white"/>
<path d="M272.79 102.42L273.96 104.42C273.96 104.42 274.85 107.04 276.64 107.52L281.5 105.95L281.25 105.54C280.63 104.6 280.7 102.77 280.91 101.25C281.12 99.7301 280.34 99.6801 279.76 100.06C279.349 100.533 279.06 101.1 278.92 101.71C278.681 101.38 278.417 101.069 278.13 100.78L276.65 99.3001C276.339 98.9966 275.926 98.8218 275.492 98.8106C275.058 98.7995 274.636 98.9529 274.31 99.2401L273.11 100.31C272.825 100.573 272.639 100.926 272.58 101.309C272.522 101.692 272.596 102.084 272.79 102.42Z" fill="#1AA4DE"/>
<path opacity="0.7" d="M272.79 102.42L273.96 104.42C273.96 104.42 274.85 107.04 276.64 107.52L281.5 105.95L281.25 105.54C280.63 104.6 280.7 102.77 280.91 101.25C281.12 99.7301 280.34 99.6801 279.76 100.06C279.349 100.533 279.06 101.1 278.92 101.71C278.681 101.38 278.417 101.069 278.13 100.78L276.65 99.3001C276.339 98.9966 275.926 98.8218 275.492 98.8106C275.058 98.7995 274.636 98.9529 274.31 99.2401L273.11 100.31C272.825 100.573 272.639 100.926 272.58 101.309C272.522 101.692 272.596 102.084 272.79 102.42Z" fill="white"/>
<path d="M318.17 95.22C312.779 96.6488 307.616 98.8267 302.83 101.69C302.083 102.157 301.497 102.842 301.151 103.651C300.804 104.461 300.713 105.357 300.89 106.22C302.82 115.66 307.21 128.3 311.95 136.35L334.06 127.2C334.21 123.3 328.84 110.68 323.37 98.48C322.39 96.29 320.5 94.66 318.17 95.22Z" fill="#1AA4DE"/>
<path opacity="0.8" d="M318.17 95.22C312.779 96.6488 307.616 98.8267 302.83 101.69C302.083 102.157 301.497 102.842 301.151 103.651C300.804 104.461 300.713 105.357 300.89 106.22C302.82 115.66 307.21 128.3 311.95 136.35L334.06 127.2C334.21 123.3 328.84 110.68 323.37 98.48C322.39 96.29 320.5 94.66 318.17 95.22Z" fill="white"/>
<path opacity="0.3" d="M326.8 106.21L322.41 104.74C323.41 107.31 326.94 110.56 329.41 112.47C328.61 110.47 327.72 108.37 326.8 106.21Z" fill="#1AA4DE"/>
<path d="M316.72 85.3199C314.89 81.8399 310.94 80.0899 306.2 80.4799C302.2 80.8199 298.66 84.8999 299.08 87.0999C299.5 89.2999 302.86 90.2399 303.5 90.9999L300.73 92.9999C300.402 93.2367 300.125 93.5375 299.916 93.8842C299.707 94.2308 299.571 94.6161 299.515 95.0169C299.459 95.4177 299.484 95.8256 299.59 96.2163C299.696 96.6069 299.879 96.9721 300.13 97.2899C301.3 98.7699 302.84 100.29 303.73 101.41C311.39 101.21 317.06 98.2899 319.11 95.4799C318.34 91.9199 318.5 88.7799 316.72 85.3199Z" fill="#1AA4DE"/>
<path opacity="0.8" d="M316.72 85.3199C314.89 81.8399 310.94 80.0899 306.2 80.4799C302.2 80.8199 298.66 84.8999 299.08 87.0999C299.5 89.2999 302.86 90.2399 303.5 90.9999L300.73 92.9999C300.402 93.2367 300.125 93.5375 299.916 93.8842C299.707 94.2308 299.571 94.6161 299.515 95.0169C299.459 95.4177 299.484 95.8256 299.59 96.2163C299.696 96.6069 299.879 96.9721 300.13 97.2899C301.3 98.7699 302.84 100.29 303.73 101.41C311.39 101.21 317.06 98.2899 319.11 95.4799C318.34 91.9199 318.5 88.7799 316.72 85.3199Z" fill="white"/>
<path d="M312.96 87.4801C313.504 88.8747 313.622 90.3992 313.299 91.861C312.977 93.3227 312.228 94.656 311.148 95.6924C310.068 96.7287 308.705 97.4216 307.231 97.6834C305.757 97.9453 304.239 97.7643 302.868 97.1633C301.497 96.5624 300.335 95.5685 299.529 94.3073C298.722 93.0461 298.308 91.5742 298.338 90.0776C298.369 88.581 298.842 87.127 299.698 85.8993C300.555 84.6716 301.756 83.7253 303.15 83.1801C305.021 82.4511 307.105 82.4945 308.944 83.3007C310.784 84.1069 312.228 85.6101 312.96 87.4801Z" fill="#263238"/>
<path d="M377.89 177.6C377.78 174.31 377.63 174.6 377.54 171.83C377.48 170.13 377.47 168.24 377.46 166.61C377.456 165.836 377.186 165.086 376.694 164.489C376.202 163.891 375.519 163.482 374.76 163.33C373.44 163.06 372.11 162.81 370.76 162.53C369.03 162.16 367.32 161.76 365.63 161.27C364.31 160.89 363.01 160.47 361.72 160C360.43 159.53 358.98 159 357.64 158.38C356.06 157.71 354.5 156.99 352.96 156.24C351.23 155.42 349.52 154.56 347.81 153.69C341.23 142.8 341.09 135.62 334.03 127.2L318.87 134.06C318.87 134.06 330.01 153.82 337.59 162.2C341.96 167.02 348.81 169.2 354.92 170.78C359.33 171.91 363.8 172.78 368.27 173.61C370.01 173.93 371.9 174.05 373.4 175.09C374.509 175.941 375.27 177.167 375.54 178.54C375.606 178.82 375.666 179.1 375.72 179.38C375.91 180.22 377.96 179.58 377.89 177.6Z" fill="#1AA4DE"/>
<path opacity="0.8" d="M377.89 177.6C377.78 174.31 377.63 174.6 377.54 171.83C377.48 170.13 377.47 168.24 377.46 166.61C377.456 165.836 377.186 165.086 376.694 164.489C376.202 163.891 375.519 163.482 374.76 163.33C373.44 163.06 372.11 162.81 370.76 162.53C369.03 162.16 367.32 161.76 365.63 161.27C364.31 160.89 363.01 160.47 361.72 160C360.43 159.53 358.98 159 357.64 158.38C356.06 157.71 354.5 156.99 352.96 156.24C351.23 155.42 349.52 154.56 347.81 153.69C341.23 142.8 341.09 135.62 334.03 127.2L318.87 134.06C318.87 134.06 330.01 153.82 337.59 162.2C341.96 167.02 348.81 169.2 354.92 170.78C359.33 171.91 363.8 172.78 368.27 173.61C370.01 173.93 371.9 174.05 373.4 175.09C374.509 175.941 375.27 177.167 375.54 178.54C375.606 178.82 375.666 179.1 375.72 179.38C375.91 180.22 377.96 179.58 377.89 177.6Z" fill="white"/>
<path opacity="0.3" d="M370.2 162.4C369.6 162.27 369 162.14 368.39 161.99C368.44 165.45 366.82 171.41 366.23 173.22L368.13 173.58C369.375 169.978 370.073 166.209 370.2 162.4Z" fill="#1AA4DE"/>
<path opacity="0.3" d="M377.5 166.61C377.497 165.837 377.228 165.089 376.738 164.491C376.248 163.894 375.567 163.484 374.81 163.33L373.81 163.14C373.971 164.276 374.552 165.311 375.44 166.04C376.011 166.567 376.695 166.957 377.44 167.18C377.5 167 377.5 166.8 377.5 166.61Z" fill="#1AA4DE"/>
<path d="M311.55 87.5398C311.95 89.0598 310.25 90.6498 308.9 89.3398C307.64 87.9889 306.261 86.7539 304.78 85.6498C303.39 84.7798 305.24 83.2598 307.43 83.8498C308.364 84.0846 309.228 84.5432 309.946 85.1861C310.663 85.8289 311.214 86.6367 311.55 87.5398Z" fill="white"/>
<path d="M311.66 135.86C310.96 136.12 312.24 137.32 312.24 137.32C312.24 137.32 326.24 132.53 334.74 127.6C334.761 127.302 334.71 127.002 334.591 126.728C334.473 126.453 334.291 126.21 334.06 126.02C326.785 129.721 319.307 133.006 311.66 135.86Z" fill="#1AA4DE"/>
<path opacity="0.5" d="M311.66 135.86C310.96 136.12 312.24 137.32 312.24 137.32C312.24 137.32 326.24 132.53 334.74 127.6C334.761 127.302 334.71 127.002 334.591 126.728C334.473 126.453 334.291 126.21 334.06 126.02C326.785 129.721 319.307 133.006 311.66 135.86Z" fill="white"/>
<path d="M321.96 94.5599C324.72 95.9599 327.31 97.4299 329.96 99.0599C331.25 99.8799 332.53 100.71 333.8 101.61C335.07 102.51 336.33 103.43 337.6 104.47L338.07 104.86L338.66 105.4C339.012 105.714 339.345 106.048 339.66 106.4C339.98 106.75 340.25 107.09 340.51 107.4C340.77 107.71 341.05 108.08 341.28 108.4C342.212 109.685 343.073 111.021 343.86 112.4C345.41 115.074 346.747 117.866 347.86 120.75C348.066 121.295 348.076 121.894 347.89 122.446C347.704 122.998 347.332 123.468 346.838 123.777C346.345 124.085 345.759 124.214 345.181 124.139C344.604 124.065 344.07 123.793 343.67 123.37L343.62 123.31C341.62 121.18 339.69 118.94 337.75 116.85C335.81 114.76 333.84 112.64 332.21 111.71C329.94 110.3 327.41 108.89 324.9 107.51L317.34 103.31C316.168 102.689 315.29 101.628 314.9 100.361C314.51 99.0929 314.639 97.7221 315.26 96.5499C315.881 95.3776 316.941 94.4999 318.209 94.1098C319.477 93.7198 320.848 93.8493 322.02 94.4699L321.96 94.5599Z" fill="#1AA4DE"/>
<path opacity="0.8" d="M321.96 94.5599C324.72 95.9599 327.31 97.4299 329.96 99.0599C331.25 99.8799 332.53 100.71 333.8 101.61C335.07 102.51 336.33 103.43 337.6 104.47L338.07 104.86L338.66 105.4C339.012 105.714 339.345 106.048 339.66 106.4C339.98 106.75 340.25 107.09 340.51 107.4C340.77 107.71 341.05 108.08 341.28 108.4C342.212 109.685 343.073 111.021 343.86 112.4C345.41 115.074 346.747 117.866 347.86 120.75C348.066 121.295 348.076 121.894 347.89 122.446C347.704 122.998 347.332 123.468 346.838 123.777C346.345 124.085 345.759 124.214 345.181 124.139C344.604 124.065 344.07 123.793 343.67 123.37L343.62 123.31C341.62 121.18 339.69 118.94 337.75 116.85C335.81 114.76 333.84 112.64 332.21 111.71C329.94 110.3 327.41 108.89 324.9 107.51L317.34 103.31C316.168 102.689 315.29 101.628 314.9 100.361C314.51 99.0929 314.639 97.7221 315.26 96.5499C315.881 95.3776 316.941 94.4999 318.209 94.1098C319.477 93.7198 320.848 93.8493 322.02 94.4699L321.96 94.5599Z" fill="white"/>
<path d="M350.23 125.74L349.38 123.61C349.38 123.61 348.91 120.89 347.22 120.13L342.22 120.92L342.39 121.36C342.85 122.36 342.5 124.19 342.05 125.65C341.6 127.11 342.36 127.3 343 127.01C343.36 126.85 343.71 126.2 344.09 125.51C344.276 125.858 344.487 126.192 344.72 126.51L345.95 128.2C346.207 128.55 346.587 128.79 347.013 128.872C347.44 128.953 347.882 128.871 348.25 128.64L349.61 127.77C349.928 127.552 350.163 127.232 350.276 126.864C350.388 126.495 350.372 126.098 350.23 125.74Z" fill="#1AA4DE"/>
<path opacity="0.8" d="M350.23 125.74L349.38 123.61C349.38 123.61 348.91 120.89 347.22 120.13L342.22 120.92L342.39 121.36C342.85 122.36 342.5 124.19 342.05 125.65C341.6 127.11 342.36 127.3 343 127.01C343.36 126.85 343.71 126.2 344.09 125.51C344.276 125.858 344.487 126.192 344.72 126.51L345.95 128.2C346.207 128.55 346.587 128.79 347.013 128.872C347.44 128.953 347.882 128.871 348.25 128.64L349.61 127.77C349.928 127.552 350.163 127.232 350.276 126.864C350.388 126.495 350.372 126.098 350.23 125.74Z" fill="white"/>
<path opacity="0.3" d="M317.74 106.06L316.52 106.16L309.03 124.24C309.439 124.27 309.851 124.236 310.25 124.14C310.25 124.14 320.01 120.5 322.96 119.14C320.98 115.05 317.74 106.06 317.74 106.06Z" fill="#1AA4DE"/>
<path d="M304.07 110.8C304.98 115.526 306.67 120.068 309.07 124.24C312.73 122.98 318.83 120.6 321.79 119.24C319.8 114.975 318.035 110.609 316.5 106.16C313.37 106.37 306.5 109 304.07 110.8Z" fill="white"/>
<path opacity="0.3" d="M311.5 114.71C311.353 115.199 311.066 115.634 310.672 115.959C310.279 116.284 309.798 116.486 309.29 116.538C308.782 116.59 308.271 116.49 307.82 116.251C307.369 116.012 306.999 115.644 306.757 115.195C306.514 114.746 306.411 114.235 306.459 113.727C306.508 113.219 306.706 112.736 307.028 112.341C307.351 111.945 307.783 111.654 308.271 111.504C308.759 111.355 309.281 111.353 309.77 111.5C310.425 111.697 310.975 112.145 311.299 112.747C311.623 113.349 311.696 114.055 311.5 114.71Z" fill="#1AA4DE"/>
<path opacity="0.6" d="M313.41 111.27C313.371 111.437 313.282 111.588 313.156 111.704C313.029 111.819 312.871 111.894 312.701 111.918C312.531 111.942 312.358 111.914 312.205 111.838C312.051 111.762 311.924 111.641 311.84 111.492C311.757 111.342 311.72 111.171 311.735 111C311.751 110.829 311.817 110.667 311.927 110.535C312.036 110.403 312.182 110.307 312.347 110.26C312.512 110.212 312.687 110.216 312.85 110.27C313.052 110.335 313.223 110.474 313.327 110.659C313.431 110.845 313.46 111.063 313.41 111.27Z" fill="#1AA4DE"/>
<path opacity="0.6" d="M315.65 110.4C315.626 110.516 315.579 110.626 315.511 110.722C315.442 110.819 315.354 110.9 315.253 110.961C315.151 111.022 315.038 111.06 314.921 111.075C314.803 111.089 314.684 111.079 314.571 111.045C314.457 111.011 314.353 110.953 314.263 110.876C314.173 110.799 314.1 110.704 314.049 110.597C313.999 110.49 313.971 110.374 313.967 110.255C313.964 110.137 313.985 110.019 314.03 109.91C314.062 109.804 314.114 109.706 314.185 109.62C314.255 109.535 314.341 109.464 314.439 109.412C314.536 109.36 314.643 109.328 314.753 109.317C314.863 109.306 314.974 109.317 315.08 109.35C315.294 109.415 315.474 109.561 315.581 109.758C315.687 109.954 315.712 110.185 315.65 110.4Z" fill="#1AA4DE"/>
<path opacity="0.5" d="M318.79 118.19L309.54 121.84L308.99 120.02L318.23 116.37L318.79 118.19Z" fill="#1AA4DE"/>
<path opacity="0.2" d="M267.76 257.17C267.739 262.993 267.176 268.801 266.08 274.52C264.9 279.66 263.067 283.42 260.58 285.8C259.422 286.95 258.046 287.858 256.534 288.47C255.021 289.083 253.402 289.389 251.77 289.37C246.63 289.37 242.707 286.567 240 280.96C239.524 279.953 239.12 278.914 238.79 277.85C233.074 282.76 227.751 288.109 222.87 293.85L217.56 300.11C220.418 303.006 223.715 305.433 227.33 307.3C233.557 310.52 241.73 312.133 251.85 312.14C253.63 312.14 255.35 312.09 257.02 311.99C263.143 302.931 268.209 293.201 272.12 282.99L286.97 244.27L267.76 257.17Z" fill="black"/>
<path d="M133.89 310L151.39 327.5L200.39 281.33C183.5 274.88 150.66 293.19 133.89 310Z" fill="#263238"/>
<path d="M194.92 371C189.33 365.4 177.42 353.5 177.42 353.5L223.59 304.5C230 321.35 211.69 354.22 194.92 371Z" fill="#263238"/>
<path d="M261.9 260.7L280.99 223.89L244.18 243C232.357 249.132 221.44 256.872 211.74 266L148.99 325.07L179.82 355.9L238.89 293.15C248.022 283.448 255.766 272.528 261.9 260.7Z" fill="#1AA4DE"/>
<path opacity="0.6" d="M261.9 260.7L280.99 223.89L244.18 243C232.357 249.132 221.44 256.872 211.74 266L148.99 325.07L179.82 355.9L238.89 293.15C248.022 283.448 255.766 272.528 261.9 260.7Z" fill="white"/>
<path d="M222.7 295.08C229.824 295.08 235.6 289.305 235.6 282.18C235.6 275.056 229.824 269.28 222.7 269.28C215.575 269.28 209.8 275.056 209.8 282.18C209.8 289.305 215.575 295.08 222.7 295.08Z" fill="white"/>
<path d="M222.7 290.47C227.279 290.47 230.99 286.759 230.99 282.18C230.99 277.602 227.279 273.89 222.7 273.89C218.122 273.89 214.41 277.602 214.41 282.18C214.41 286.759 218.122 290.47 222.7 290.47Z" fill="#1AA4DE"/>
<path opacity="0.3" d="M190.25 344.82L160.06 314.63L184.78 291.37L213.51 320.11L190.25 344.82Z" fill="#1AA4DE"/>
<path d="M140.72 337.62C118.12 339.45 110.63 353.92 108.07 373.15C106.77 382.96 106.19 392.89 97.96 398.63C97.4649 398.967 97.0921 399.454 96.8975 400.021C96.7029 400.587 96.6969 401.201 96.8805 401.77C97.064 402.34 97.4273 402.835 97.9157 403.181C98.4042 403.527 98.9916 403.706 99.59 403.69C129.93 402.74 144.08 387.89 145.86 381.69C145.393 384.931 144.557 388.108 143.37 391.16C143.152 391.699 143.109 392.292 143.248 392.857C143.387 393.421 143.7 393.927 144.143 394.302C144.587 394.678 145.137 394.904 145.717 394.949C146.296 394.993 146.875 394.854 147.37 394.55C155.88 389.22 166.56 379.4 167.27 363.47C161.01 354.6 140.72 337.62 140.72 337.62Z" fill="#1AA4DE"/>
<path opacity="0.2" d="M140.72 337.62C118.12 339.45 110.63 353.92 108.07 373.15C106.77 382.96 106.19 392.89 97.96 398.63C97.4649 398.967 97.0921 399.454 96.8975 400.021C96.7029 400.587 96.6969 401.201 96.8805 401.77C97.064 402.34 97.4273 402.835 97.9157 403.181C98.4042 403.527 98.9916 403.706 99.59 403.69C129.93 402.74 144.08 387.89 145.86 381.69C145.393 384.931 144.557 388.108 143.37 391.16C143.152 391.699 143.109 392.292 143.248 392.857C143.387 393.421 143.7 393.927 144.143 394.302C144.587 394.678 145.137 394.904 145.717 394.949C146.296 394.993 146.875 394.854 147.37 394.55C155.88 389.22 166.56 379.4 167.27 363.47C161.01 354.6 140.72 337.62 140.72 337.62Z" fill="white"/>
<path d="M170.78 370.3L134.58 334.1L153.86 329.93L174.95 351.02L170.78 370.3Z" fill="#1AA4DE"/>
</svg>
