<svg width="121" height="24" viewBox="0 0 121 24" fill="none" xmlns="http://www.w3.org/2000/svg">
<path d="M60.3582 10.8309V15.6392C60.3891 16.0091 60.4507 16.2711 60.5432 16.4252C60.6356 16.5639 60.8283 16.6641 61.1211 16.7257L61.0286 19.0606C60.2427 19.0606 59.6108 19.0066 59.133 18.8987C58.6707 18.7909 58.2007 18.5751 57.7229 18.2515C56.6133 18.7909 55.4806 19.0606 54.3247 19.0606C51.936 19.0606 50.7416 17.7968 50.7416 15.2694C50.7416 14.0365 51.0729 13.1657 51.7356 12.6572C52.3983 12.1332 53.4154 11.8249 54.787 11.7325L57.2606 11.5475V10.8309C57.2606 10.3532 57.1527 10.0295 56.9369 9.86C56.7212 9.67507 56.3744 9.5826 55.8967 9.5826L51.5507 9.76754L51.4582 7.61766C53.1072 7.17073 54.6715 6.94727 56.1509 6.94727C57.6458 6.94727 58.7169 7.25549 59.3642 7.87194C60.0269 8.4884 60.3582 9.47472 60.3582 10.8309ZM55.1569 13.8824C54.2939 13.9594 53.8624 14.4218 53.8624 15.2694C53.8624 16.117 54.2399 16.5408 54.9951 16.5408C55.5807 16.5408 56.2203 16.4483 56.9138 16.2634L57.2606 16.1709V13.6974L55.1569 13.8824Z" fill="#0F172A"/>
<path d="M50.6431 9.86031H47.7997V14.5993C47.7997 15.0616 47.8074 15.393 47.8228 15.5933C47.8536 15.7783 47.9384 15.9401 48.0771 16.0788C48.2312 16.2175 48.4624 16.2868 48.7706 16.2868L50.5275 16.2406L50.6662 18.7141C49.6337 18.9453 48.8477 19.0609 48.3083 19.0609C46.9213 19.0609 45.9735 18.7526 45.4649 18.1362C44.9563 17.5043 44.702 16.3485 44.702 14.6686V9.86031H43.3381V7.22498H44.702V4.01172H47.7997V7.22498H50.6431V9.86031Z" fill="#0F172A"/>
<path d="M42.4426 10.8309V15.6392C42.4734 16.0091 42.5351 16.2711 42.6275 16.4252C42.72 16.5639 42.9126 16.6641 43.2054 16.7257L43.113 19.0606C42.327 19.0606 41.6951 19.0066 41.2174 18.8987C40.755 18.7909 40.285 18.5751 39.8073 18.2515C38.6976 18.7909 37.5649 19.0606 36.4091 19.0606C34.0203 19.0606 32.8259 17.7968 32.8259 15.2694C32.8259 14.0365 33.1573 13.1657 33.82 12.6572C34.4826 12.1332 35.4998 11.8249 36.8714 11.7325L39.3449 11.5475V10.8309C39.3449 10.3532 39.237 10.0295 39.0213 9.86C38.8055 9.67507 38.4588 9.5826 37.981 9.5826L33.635 9.76754L33.5426 7.61766C35.1916 7.17073 36.7558 6.94727 38.2353 6.94727C39.7302 6.94727 40.8013 7.25549 41.4486 7.87194C42.1112 8.4884 42.4426 9.47472 42.4426 10.8309ZM37.2413 13.8824C36.3782 13.9594 35.9467 14.4218 35.9467 15.2694C35.9467 16.117 36.3243 16.5408 37.0795 16.5408C37.6651 16.5408 38.3046 16.4483 38.9982 16.2634L39.3449 16.1709V13.6974L37.2413 13.8824Z" fill="#0F172A"/>
<path d="M25.5741 18.783H20.2803V3.06348H25.5741C26.9303 3.06348 28.0476 3.20988 28.926 3.5027C29.8045 3.7801 30.4826 4.25015 30.9603 4.91283C31.4535 5.56011 31.7925 6.33067 31.9775 7.22453C32.1624 8.10298 32.2549 9.25112 32.2549 10.669C32.2549 12.0868 32.1701 13.2658 32.0006 14.2059C31.8311 15.1305 31.5074 15.9627 31.0297 16.7025C30.5673 17.4268 29.8892 17.9585 28.9954 18.2976C28.1015 18.6212 26.9611 18.783 25.5741 18.783ZM28.926 12.5414C28.9568 12.0483 28.9723 11.3702 28.9723 10.5071C28.9723 9.62869 28.9414 8.92748 28.8798 8.4035C28.8181 7.87951 28.6717 7.40176 28.4406 6.97024C28.2094 6.53873 27.8626 6.24591 27.4003 6.0918C26.9534 5.92227 26.3446 5.83751 25.5741 5.83751H23.4704V16.009H25.5741C26.7299 16.009 27.5698 15.7162 28.0938 15.1305C28.5407 14.6528 28.8181 13.7898 28.926 12.5414Z" fill="#0F172A"/>
<path d="M115.059 18.7825V7.22401H116.77V8.79597C118.111 7.87129 119.521 7.26254 121 6.96973V8.72662C120.353 8.84991 119.675 9.04255 118.966 9.30454C118.272 9.56653 117.741 9.7977 117.371 9.99805L116.793 10.2986V18.7825H115.059Z" fill="#0F172A"/>
<path d="M112.403 17.3496L113.074 17.2802L113.12 18.6441C111.363 18.8907 109.86 19.014 108.612 19.014C106.948 19.014 105.769 18.5362 105.075 17.5807C104.382 16.6098 104.035 15.1072 104.035 13.0729C104.035 9.01975 105.645 6.99316 108.866 6.99316C110.423 6.99316 111.586 7.43239 112.357 8.31083C113.128 9.17387 113.513 10.5378 113.513 12.4025L113.42 13.7202H105.792C105.792 14.9993 106.023 15.9471 106.485 16.5636C106.948 17.18 107.749 17.4883 108.889 17.4883C110.045 17.4883 111.217 17.442 112.403 17.3496ZM111.779 12.3332C111.779 10.9153 111.548 9.91361 111.086 9.32798C110.639 8.74235 109.899 8.44953 108.866 8.44953C107.849 8.44953 107.079 8.75776 106.555 9.37421C106.046 9.99067 105.784 10.977 105.769 12.3332H111.779Z" fill="#0F172A"/>
<path d="M93.5089 23.9148V7.22433H95.2196V8.05655C96.3908 7.34763 97.5467 6.99316 98.6871 6.99316C100.151 6.99316 101.215 7.46321 101.877 8.4033C102.54 9.32798 102.871 10.8614 102.871 13.0036C102.871 15.1457 102.478 16.6869 101.692 17.627C100.922 18.5517 99.6349 19.014 97.8318 19.014C96.8917 19.014 96.0287 18.9292 95.2427 18.7597V23.9148H93.5089ZM98.4328 8.542C97.9705 8.542 97.4696 8.61906 96.9302 8.77317C96.4062 8.92728 95.9901 9.0814 95.6819 9.23551L95.2427 9.46668V17.2571C96.3369 17.4266 97.1691 17.5114 97.7393 17.5114C98.9876 17.5114 99.8584 17.1569 100.352 16.448C100.86 15.7391 101.114 14.5832 101.114 12.9805C101.114 11.3777 100.883 10.2372 100.421 9.55915C99.974 8.88105 99.3113 8.542 98.4328 8.542Z" fill="#0F172A"/>
<path d="M89.4531 18.7826V2.18457H91.1869V18.7826H89.4531Z" fill="#0F172A"/>
<path d="M86.6586 17.3496L87.329 17.2802L87.3753 18.6441C85.6184 18.8907 84.1158 19.014 82.8674 19.014C81.203 19.014 80.0241 18.5362 79.3305 17.5807C78.637 16.6098 78.2903 15.1072 78.2903 13.0729C78.2903 9.01975 79.9008 6.99316 83.1217 6.99316C84.6783 6.99316 85.8418 7.43239 86.6124 8.31083C87.383 9.17387 87.7682 10.5378 87.7682 12.4025L87.6758 13.7202H80.0472C80.0472 14.9993 80.2783 15.9471 80.7407 16.5636C81.203 17.18 82.0044 17.4883 83.1448 17.4883C84.3007 17.4883 85.472 17.442 86.6586 17.3496ZM86.0345 12.3332C86.0345 10.9153 85.8033 9.91361 85.341 9.32798C84.894 8.74235 84.1543 8.44953 83.1217 8.44953C82.1046 8.44953 81.334 8.75776 80.81 9.37421C80.3015 9.99067 80.0395 10.977 80.0241 12.3332H86.0345Z" fill="#0F172A"/>
<path d="M74.6857 18.7821V11.5465H66.5486V18.7821H64.7686V2.78516H66.5486V9.95142H74.6857V2.78516H76.4426V18.7821H74.6857Z" fill="#0F172A"/>
<path d="M0 0V6.37633L7.26091 10.9098L11.5364 7.74006C11.5364 7.74006 11.5364 7.15034 10.5044 6.45005L0 0Z" fill="#F15E24"/>
<path d="M0.0736084 21.6723V14.9643L11.5363 7.74023L11.61 14.0429C11.61 14.0429 11.6837 14.264 10.7623 14.8537L0.0736084 21.6723Z" fill="#1AA4DE"/>
</svg>
